<?xml version="1.0" encoding="UTF-8"?>
<svg width="26px" height="24px" viewBox="0 0 26 24" version="1.1" xmlns="http://www.w3.org/2000/svg" xmlns:xlink="http://www.w3.org/1999/xlink">
    <title>color-variables</title>
    <g id="color-variables" stroke="none" stroke-width="1" fill="none" fill-rule="evenodd">
        <path d="M14.1367188,21.6367188 C18.2480469,21.6367188 20.9921875,20.1816406 20.9921875,18.0332031 C20.9921875,16.109375 19.3515625,15.6796875 19.3515625,14.546875 C19.3515625,12.984375 25.0253906,12.671875 25.0253906,8.65820312 C25.0253906,4.69335938 20.9335938,2.07617188 14.859375,2.07617188 C6.88085938,2.07617188 1.5,6.06054688 1.5,12.0273438 C1.5,17.7695312 6.60742188,21.6367188 14.1367188,21.6367188 Z M14.1367188,19.9667969 C7.52539062,19.9667969 3.16992188,16.7832031 3.16992188,12.0273438 C3.16992188,7.046875 7.79882812,3.74609375 14.859375,3.74609375 C19.9863281,3.74609375 23.3554688,5.73828125 23.3554688,8.65820312 C23.3554688,12.0664062 17.6425781,11.6074219 17.6425781,14.5566406 C17.6425781,16.2265625 19.3222656,16.7539062 19.3222656,17.90625 C19.3222656,19.1464844 17.28125,19.9667969 14.1367188,19.9667969 Z M14.9472656,8.65820312 C15.8652344,8.65820312 16.5878906,7.92578125 16.5878906,7.0078125 C16.5878906,6.09960938 15.8652344,5.3671875 14.9472656,5.3671875 C14.0488281,5.3671875 13.296875,6.09960938 13.296875,7.0078125 C13.296875,7.92578125 14.0488281,8.65820312 14.9472656,8.65820312 Z M10.0058594,10.2402344 C11.1289062,10.2402344 12.046875,9.33203125 12.046875,8.1796875 C12.046875,7.05664062 11.1191406,6.15820312 10.0058594,6.15820312 C8.85351562,6.15820312 7.93554688,7.05664062 7.93554688,8.1796875 C7.93554688,9.33203125 8.85351562,10.2402344 10.0058594,10.2402344 Z M19.4101562,9.28320312 C20.1425781,9.28320312 20.7285156,8.6875 20.7285156,7.9453125 C20.7285156,7.21289062 20.1425781,6.6171875 19.4101562,6.6171875 C18.6679688,6.6171875 18.0625,7.21289062 18.0625,7.9453125 C18.0625,8.6875 18.6679688,9.28320312 19.4101562,9.28320312 Z M6.43164062,13.3652344 C7.33007812,13.3652344 8.05273438,12.6230469 8.05273438,11.7246094 C8.05273438,10.8261719 7.33984375,10.1035156 6.43164062,10.1035156 C5.54296875,10.1035156 4.81054688,10.8261719 4.81054688,11.7246094 C4.81054688,12.6230469 5.54296875,13.3652344 6.43164062,13.3652344 Z M13.3359375,17.6621094 C14.8203125,17.6621094 16.0410156,16.4414062 16.0410156,14.9472656 C16.0410156,13.4726562 14.8203125,12.2519531 13.3359375,12.2519531 C11.8515625,12.2519531 10.6308594,13.4726562 10.6308594,14.9472656 C10.6308594,16.4414062 11.8515625,17.6621094 13.3359375,17.6621094 Z M13.3359375,16.5292969 C12.4667969,16.5292969 11.7636719,15.8261719 11.7636719,14.9472656 C11.7636719,13.9804688 12.5058594,13.4042969 13.3164062,13.3945312 C14.1464844,13.3847656 14.9082031,13.9511719 14.9082031,14.9472656 C14.9082031,15.8261719 14.2148438,16.5292969 13.3359375,16.5292969 Z" id="ô€¥" fill="#007AFF" fill-rule="nonzero"></path>
    </g>
</svg>