<?xml version="1.0" encoding="UTF-8"?>
<svg width="26px" height="24px" viewBox="0 0 26 24" version="1.1" xmlns="http://www.w3.org/2000/svg" xmlns:xlink="http://www.w3.org/1999/xlink">
    <title>dark-mode</title>
    <g id="dark-mode" stroke="none" stroke-width="1" fill="none" fill-rule="evenodd">
        <path d="M13.4638672,21.6367188 C17.6728516,21.6367188 21.3154297,19.0878906 22.5263672,15.9042969 C22.6142578,15.6796875 22.6337891,15.4453125 22.6337891,15.3574219 C22.6337891,14.9960938 22.3310547,14.7519531 22.0576172,14.7519531 C21.9306641,14.7519531 21.8232422,14.78125 21.6376953,14.8398438 C20.8857422,15.0839844 19.6748047,15.3476562 18.4736328,15.3476562 C13.1904297,15.3476562 9.81152344,12.0371094 9.81152344,6.74414062 C9.81152344,5.65039062 10.0751953,4.08789062 10.4267578,3.27734375 C10.5146484,3.05273438 10.5341797,2.91601562 10.5341797,2.81835938 C10.5341797,2.5546875 10.3388672,2.26171875 9.95800781,2.26171875 C9.85058594,2.26171875 9.61621094,2.29101562 9.40136719,2.36914062 C5.78808594,3.81445312 3.36621094,7.70117188 3.36621094,11.7929688 C3.36621094,17.5351562 7.74121094,21.6367188 13.4638672,21.6367188 Z" id="􀆺" fill="#007AFF" fill-rule="nonzero"></path>
    </g>
</svg>