<?xml version="1.0" encoding="UTF-8"?>
<svg width="26px" height="24px" viewBox="0 0 26 24" version="1.1" xmlns="http://www.w3.org/2000/svg" xmlns:xlink="http://www.w3.org/1999/xlink">
    <title>perfection</title>
    <g id="perfection" stroke="none" stroke-width="1" fill="none" fill-rule="evenodd">
        <path d="M13,21.109375 C19.6601562,21.109375 23.0390625,18.6679688 21.7890625,15.1230469 L19.6015625,8.82421875 L19.6015625,5.54296875 C19.6015625,4.00976562 16.9648438,2.828125 13,2.828125 C9.04492188,2.828125 6.41796875,4.00976562 6.41796875,5.54296875 L6.41796875,8.79492188 L4.2109375,15.1230469 C2.97070312,18.6679688 6.33984375,21.109375 13,21.109375 Z M13,6.78320312 C10.0019531,6.78320312 7.99023437,6.16796875 7.99023437,5.54296875 C7.99023437,4.90820312 10.0019531,4.30273438 13,4.30273438 C16.0175781,4.30273438 18.0292969,4.90820312 18.0292969,5.54296875 C18.0292969,6.16796875 16.0175781,6.78320312 13,6.78320312 Z M13,19.5273438 C7.6484375,19.5273438 4.89453125,17.9257812 5.70507812,15.6113281 L7.39453125,10.8164062 C8.48828125,11.6367188 10.4511719,12.1738281 13,12.1738281 C15.5292969,12.1738281 17.5019531,11.6367188 18.6054688,10.8164062 L20.2949219,15.6113281 C21.1054688,17.9257812 18.3515625,19.5273438 13,19.5273438 Z" id="􀤎" fill="#007AFF" fill-rule="nonzero"></path>
    </g>
</svg>