<?xml version="1.0" encoding="UTF-8"?>
<svg width="26px" height="24px" viewBox="0 0 26 24" version="1.1" xmlns="http://www.w3.org/2000/svg" xmlns:xlink="http://www.w3.org/1999/xlink">
    <title>sf-symbols</title>
    <g id="sf-symbols" stroke="none" stroke-width="1" fill="none" fill-rule="evenodd">
        <path d="M10.4951172,6.80273438 C10.6123047,6.80273438 10.6708984,6.734375 10.6904297,6.62695312 C11.0224609,5.06445312 11.0029297,5.00585938 12.6435547,4.67382812 C12.7509766,4.65429688 12.8291016,4.5859375 12.8291016,4.47851562 C12.8291016,4.36132812 12.7509766,4.29296875 12.6435547,4.2734375 C11.0029297,3.94140625 11.0224609,3.8828125 10.6904297,2.33007812 C10.6708984,2.22265625 10.6123047,2.14453125 10.4951172,2.14453125 C10.3779297,2.14453125 10.3193359,2.22265625 10.2998047,2.33007812 C9.96777344,3.8828125 9.98730469,3.94140625 8.34667969,4.2734375 C8.23925781,4.29296875 8.16113281,4.36132812 8.16113281,4.47851562 C8.16113281,4.5859375 8.23925781,4.65429688 8.34667969,4.67382812 C9.98730469,5.00585938 9.96777344,5.06445312 10.2998047,6.62695312 C10.3193359,6.734375 10.3779297,6.80273438 10.4951172,6.80273438 Z M18.5615234,10.25 C18.6982422,10.25 18.7763672,10.1621094 18.8056641,10.0351562 C19.1376953,8.1796875 19.1474609,8.0625 21.1103516,7.72070312 C21.2470703,7.70117188 21.3349609,7.61328125 21.3349609,7.4765625 C21.3349609,7.33984375 21.2470703,7.26171875 21.1103516,7.23242188 C19.1474609,6.90039062 19.1376953,6.78320312 18.8056641,4.92773438 C18.7763672,4.80078125 18.6982422,4.703125 18.5615234,4.703125 C18.4248047,4.703125 18.3466797,4.80078125 18.3173828,4.92773438 C17.9853516,6.78320312 17.9755859,6.90039062 16.0126953,7.23242188 C15.8857422,7.26171875 15.7880859,7.33984375 15.7880859,7.4765625 C15.7880859,7.61328125 15.8857422,7.70117188 16.0126953,7.72070312 C17.9755859,8.0625 17.9853516,8.1796875 18.3173828,10.0351562 C18.3466797,10.1621094 18.4248047,10.25 18.5615234,10.25 Z M5.14355469,13.0527344 C5.28027344,13.0527344 5.35839844,12.9550781 5.38769531,12.828125 C5.71972656,10.9726562 5.72949219,10.8554688 7.69238281,10.5234375 C7.81933594,10.4941406 7.91699219,10.4160156 7.91699219,10.2792969 C7.91699219,10.1425781 7.81933594,10.0546875 7.69238281,10.0351562 C5.72949219,9.69335938 5.71972656,9.57617188 5.38769531,7.72070312 C5.35839844,7.59375 5.28027344,7.50585938 5.14355469,7.50585938 C5.00683594,7.50585938 4.92871094,7.59375 4.89941406,7.72070312 C4.56738281,9.57617188 4.55761719,9.69335938 2.59472656,10.0351562 C2.46777344,10.0546875 2.37011719,10.1425781 2.37011719,10.2792969 C2.37011719,10.4160156 2.46777344,10.4941406 2.59472656,10.5234375 C4.55761719,10.8554688 4.56738281,10.9726562 4.89941406,12.828125 C4.92871094,12.9550781 5.00683594,13.0527344 5.14355469,13.0527344 Z M23.3271484,21.4023438 C23.7275391,20.9726562 23.7275391,20.3085938 23.3271484,19.8984375 L14.0400391,10.5820312 C13.6298828,10.171875 12.9267578,10.171875 12.5361328,10.5820312 C12.1259766,11.0117188 12.1357422,11.6855469 12.5361328,12.0957031 L21.8232422,21.4023438 C22.2333984,21.8222656 22.9365234,21.8222656 23.3271484,21.4023438 Z M16.1396484,14.6933594 L13.2783203,11.8222656 C13.1025391,11.6464844 13.0439453,11.4511719 13.2197266,11.2851562 C13.3662109,11.1289062 13.5712891,11.1679688 13.7568359,11.3535156 L16.6279297,14.2246094 L16.1396484,14.6933594 Z M9.78222656,21.5585938 C9.95800781,21.5585938 10.0849609,21.4316406 10.1142578,21.2460938 C10.4267578,18.6386719 10.5537109,18.5703125 13.2099609,18.140625 C13.4150391,18.1015625 13.5419922,18.0039062 13.5419922,17.8085938 C13.5419922,17.6230469 13.4150391,17.5058594 13.2490234,17.4765625 C10.5732422,16.96875 10.4267578,16.9785156 10.1142578,14.3710938 C10.0849609,14.1855469 9.95800781,14.0585938 9.78222656,14.0585938 C9.59667969,14.0585938 9.46972656,14.1855469 9.45019531,14.3613281 C9.10839844,17.0078125 9.02050781,17.0957031 6.31542969,17.4765625 C6.14941406,17.4960938 6.02246094,17.6230469 6.02246094,17.8085938 C6.02246094,17.9941406 6.14941406,18.1015625 6.31542969,18.140625 C9.02050781,18.6582031 9.09863281,18.6582031 9.45019531,21.265625 C9.46972656,21.4316406 9.59667969,21.5585938 9.78222656,21.5585938 Z" id="ô€œ" fill="#007AFF" fill-rule="nonzero"></path>
    </g>
</svg>