<?xml version="1.0" encoding="UTF-8"?>
<svg width="26px" height="24px" viewBox="0 0 26 24" version="1.1" xmlns="http://www.w3.org/2000/svg" xmlns:xlink="http://www.w3.org/1999/xlink">
    <title>starter-document</title>
    <g id="starter-document" stroke="none" stroke-width="1" fill="none" fill-rule="evenodd">
        <path d="M17.4921875,21.8320312 C17.921875,21.8320312 18.2734375,21.4804688 18.2734375,21.0507812 C18.2734375,20.6210938 17.921875,20.2597656 17.4921875,20.2597656 L14.5136719,20.2597656 L14.5136719,13.7167969 L20.6855469,13.7265625 C22.0136719,13.7265625 22.7558594,12.9941406 22.7558594,11.6855469 L22.7558594,6.24609375 C22.7558594,4.9375 22.0136719,4.21484375 20.6855469,4.21484375 L14.5136719,4.21484375 L14.5136719,2.06640625 C14.5136719,1.63671875 14.1621094,1.27539062 13.7324219,1.27539062 C13.3027344,1.27539062 12.9414062,1.63671875 12.9414062,2.06640625 L12.9414062,4.21484375 L7.93164062,4.21484375 C7.0625,4.21484375 6.65234375,4.47851562 6.15429688,4.95703125 L3.55664062,7.4375 C2.46289062,8.4921875 2.4921875,9.47851562 3.546875,10.484375 L6.15429688,12.9746094 C6.65234375,13.453125 7.0625,13.7070312 7.94140625,13.7070312 L12.9414062,13.7167969 L12.9414062,20.2597656 L9.96289062,20.2597656 C9.53320312,20.2597656 9.18164062,20.6210938 9.18164062,21.0507812 C9.18164062,21.4804688 9.53320312,21.8320312 9.96289062,21.8320312 L17.4921875,21.8320312 Z" id="􀰰" fill="#007AFF" fill-rule="nonzero"></path>
    </g>
</svg>