<?xml version="1.0" encoding="UTF-8"?>
<svg width="26px" height="24px" viewBox="0 0 26 24" version="1.1" xmlns="http://www.w3.org/2000/svg" xmlns:xlink="http://www.w3.org/1999/xlink">
    <title>styles</title>
    <g id="styles" stroke="none" stroke-width="1" fill="none" fill-rule="evenodd">
        <path d="M8.98144531,22.3886719 C10.1630859,21.2070312 11.4033203,18.4238281 12.3212891,17.3300781 L14.4013672,19.4199219 C15.1630859,20.1914062 16.0810547,20.1914062 16.8232422,19.4492188 L18.0830078,18.1796875 C18.6787109,17.5742188 18.7958984,16.890625 18.4345703,16.2460938 L22.5849609,12.0957031 C23.6689453,11.0117188 23.6494141,9.71289062 22.5361328,8.59960938 L14.8701172,0.923828125 C13.8447266,-0.1015625 12.0673828,0.298828125 11.7060547,1.890625 C10.9150391,5.33789062 10.7783203,6.12890625 9.76269531,7.671875 C9.17675781,7.41796875 8.55175781,7.56445312 8.00488281,8.1015625 L6.74511719,9.37109375 C6.00292969,10.1132812 5.99316406,11.0214844 6.76464844,11.7929688 L8.85449219,13.8730469 C7.77050781,14.7910156 4.98730469,16.0214844 3.80566406,17.203125 C2.20410156,18.8046875 2.21386719,20.71875 3.84472656,22.3398438 C5.47558594,23.9707031 7.37988281,23.9902344 8.98144531,22.3886719 Z M17.3994141,15.1035156 L10.9833984,8.6875 C12.1357422,6.95898438 12.3408203,5.72851562 13.1611328,2.70117187 C13.2880859,2.203125 13.6982422,2.07617187 14.0302734,2.3984375 L18.5810547,6.93945312 C18.3466797,8.56054688 17.4775391,9.75195312 16.4326172,10.796875 C16.3056641,10.9238281 16.3154297,11.0800781 16.4033203,11.1679688 C16.9013672,11.6660156 19.5673828,10.2109375 20.6416016,9 L21.3447266,9.703125 C21.7939453,10.1523438 21.7939453,10.6992188 21.3740234,11.1191406 L17.3994141,15.1035156 Z M4.87988281,21.3046875 C3.92285156,20.3378906 3.91308594,19.1953125 4.86035156,18.2578125 C6.41308594,16.7148438 9.62597656,15.3769531 10.3779297,14.6152344 C10.7685547,14.1953125 10.8173828,13.7265625 10.4560547,13.375 L8.10253906,11.03125 C7.84863281,10.7773437 7.84863281,10.4941406 8.10253906,10.2402344 L8.89355469,9.46875 C9.14746094,9.21484375 9.42089844,9.20507812 9.67480469,9.45898437 L16.7353516,16.5097656 C16.9794922,16.7636719 16.9794922,17.0371094 16.7158203,17.3007812 L15.9541016,18.0722656 C15.7001953,18.3457031 15.4072266,18.3554688 15.1533203,18.0820312 L12.8193359,15.7382812 C12.4580078,15.3769531 11.9892578,15.4160156 11.5791016,15.8164062 C10.8173828,16.5683594 9.47949219,19.78125 7.92675781,21.3242188 C6.98925781,22.2714844 5.85644531,22.2714844 4.87988281,21.3046875 Z M6.37402344,21.0410156 C7.03808594,21.0410156 7.57519531,20.4941406 7.57519531,19.8300781 C7.57519531,19.1660156 7.03808594,18.6289062 6.37402344,18.6289062 C5.70996094,18.6289062 5.16308594,19.1660156 5.16308594,19.8300781 C5.16308594,20.4941406 5.70996094,21.0410156 6.37402344,21.0410156 Z" id="􀎑" fill="#007AFF" fill-rule="nonzero"></path>
    </g>
</svg>