<?xml version="1.0" encoding="UTF-8"?>
<svg width="26px" height="24px" viewBox="0 0 26 24" version="1.1" xmlns="http://www.w3.org/2000/svg" xmlns:xlink="http://www.w3.org/1999/xlink">
    <title>symbols</title>
    <g id="symbols" stroke="none" stroke-width="1" fill="none" fill-rule="evenodd">
        <path d="M12.9951172,21.9492188 C13.5322266,21.9492188 13.7958984,21.5878906 14.3525391,20.8457031 L20.1826172,13.0625 C20.4462891,12.7011719 20.6025391,12.3398438 20.6025391,11.9492188 C20.6025391,11.5488281 20.4462891,11.1972656 20.1826172,10.8359375 L14.3525391,3.04296875 C13.7958984,2.31054688 13.5322266,1.94921875 12.9951172,1.94921875 C12.4580078,1.94921875 12.1943359,2.31054688 11.6474609,3.04296875 L5.81738281,10.8359375 C5.54394531,11.1972656 5.39746094,11.5488281 5.39746094,11.9492188 C5.39746094,12.3398438 5.54394531,12.7011719 5.81738281,13.0625 L11.6474609,20.8457031 C12.1943359,21.5878906 12.4580078,21.9492188 12.9951172,21.9492188 Z" id="ô€‹" fill="#007AFF" fill-rule="nonzero"></path>
    </g>
</svg>