<?xml version="1.0" encoding="UTF-8"?>
<svg width="26px" height="24px" viewBox="0 0 26 24" version="1.1" xmlns="http://www.w3.org/2000/svg" xmlns:xlink="http://www.w3.org/1999/xlink">
    <title>text-styles</title>
    <g id="text-styles" stroke="none" stroke-width="1" fill="none" fill-rule="evenodd">
        <path d="M12.4960934,19.1269531 C13.0136715,19.1269531 13.3457027,18.8144531 13.3457027,18.3261719 C13.3457027,18.1601562 13.3164059,18.0136719 13.2382809,17.7988281 L8.65820275,5.61132812 C8.43359337,5.00585938 8.03320275,4.71289062 7.40820275,4.71289062 C6.802734,4.71289062 6.39257775,5.00585938 6.177734,5.6015625 L1.59765587,17.8085938 C1.51953087,18.0234375 1.490234,18.1699219 1.490234,18.3359375 C1.490234,18.8242188 1.802734,19.1269531 2.3105465,19.1269531 C2.82812462,19.1269531 3.08203087,18.9316406 3.26757775,18.3945312 L4.52734337,14.9375 L10.2890621,14.9375 L11.5488277,18.3945312 C11.7343746,18.9316406 11.9882809,19.1269531 12.4960934,19.1269531 Z M9.80078087,13.4628906 L5.005859,13.4628906 L7.37890587,6.890625 L7.427734,6.890625 L9.80078087,13.4628906 Z M23.0722652,19.234375 C23.5410152,19.234375 23.8730465,18.9121094 23.8730465,18.3847656 L23.8730465,11.8710938 C23.8730465,9.7421875 22.3105465,8.36523438 19.8300777,8.36523438 C17.9941402,8.36523438 16.4609371,9.17578125 15.9042965,10.4355469 C15.7968746,10.6796875 15.7187496,10.9140625 15.7187496,11.1191406 C15.7187496,11.5488281 16.0410152,11.8320312 16.4609371,11.8320312 C16.7636715,11.8320312 16.9980465,11.7148438 17.1445309,11.4414062 C17.6914059,10.3085938 18.521484,9.78125 19.7910152,9.78125 C21.3144527,9.78125 22.2226559,10.6308594 22.2226559,11.9980469 L22.2226559,12.8378906 L19.068359,13.0136719 C16.5976559,13.1503906 15.2207027,14.2929688 15.2207027,16.109375 C15.2207027,17.9746094 16.6562496,19.2246094 18.7265621,19.2246094 C20.2304684,19.2246094 21.6367184,18.4042969 22.2421871,17.1347656 L22.2812496,17.1347656 L22.2812496,18.4238281 C22.2812496,18.9121094 22.6132809,19.234375 23.0722652,19.234375 Z M19.1269527,17.8671875 C17.8085934,17.8671875 16.9101559,17.1445312 16.9101559,16.0703125 C16.9101559,15.0351562 17.740234,14.3417969 19.2734371,14.2441406 L22.2226559,14.0585938 L22.2226559,15.09375 C22.2226559,16.6464844 20.8457027,17.8671875 19.1269527,17.8671875 Z" id="􀅒" fill="#007AFF" fill-rule="nonzero"></path>
    </g>
</svg>