<?xml version="1.0" encoding="UTF-8"?>
<svg width="26px" height="24px" viewBox="0 0 26 24" version="1.1" xmlns="http://www.w3.org/2000/svg" xmlns:xlink="http://www.w3.org/1999/xlink">
    <title>touch-bar</title>
    <g id="touch-bar" stroke="none" stroke-width="1" fill="none" fill-rule="evenodd">
        <path d="M21.4609375,20.9785156 C23.5117188,20.9785156 24.5273438,19.9628906 24.5273438,17.9511719 L24.5273438,6.02734375 C24.5273438,4.015625 23.5117188,3 21.4609375,3 L4.56640625,3 C2.52539062,3 1.5,4.00585938 1.5,6.02734375 L1.5,17.9511719 C1.5,19.9726562 2.52539062,20.9785156 4.56640625,20.9785156 L21.4609375,20.9785156 Z M21.4414062,19.40625 L4.5859375,19.40625 C3.609375,19.40625 3.07226562,18.8886719 3.07226562,17.8730469 L3.07226562,6.10546875 C3.07226562,5.08984375 3.609375,4.57226562 4.5859375,4.57226562 L21.4414062,4.57226562 C22.4082031,4.57226562 22.9550781,5.08984375 22.9550781,6.10546875 L22.9550781,17.8730469 C22.9550781,18.8886719 22.4082031,19.40625 21.4414062,19.40625 Z" id="ô€ž" fill="#007AFF" fill-rule="nonzero"></path>
        <path d="M7.81689453,17.0966797 C8.83740234,17.0966797 9.62158203,16.6669922 9.98144531,15.909668 C10.0244141,15.8076172 10.0512695,15.7109375 10.0512695,15.6357422 C10.0512695,15.3886719 9.88476562,15.2275391 9.63769531,15.2275391 C9.49267578,15.2275391 9.38525391,15.28125 9.28857422,15.4155273 C8.85351562,16.0493164 8.4453125,16.2856445 7.77929688,16.2856445 C6.78027344,16.2856445 6.16259766,15.5874023 6.16259766,14.4594727 L9.65380859,14.4594727 C9.97607422,14.4594727 10.1694336,14.2553711 10.1694336,13.9169922 C10.1694336,12.3862305 9.16503906,11.3173828 7.73632812,11.3173828 C6.19482422,11.3173828 5.20117188,12.4667969 5.20117188,14.2285156 C5.20117188,16.0332031 6.16796875,17.0966797 7.81689453,17.0966797 Z M9.20263672,13.7290039 L6.16796875,13.7290039 C6.22705078,12.7675781 6.85009766,12.128418 7.72021484,12.128418 C8.58496094,12.128418 9.18115234,12.762207 9.20263672,13.7290039 Z M13.0483398,17.0966797 C14.375,17.0966797 15.2719727,16.425293 15.2719727,15.4262695 C15.2719727,14.6044922 14.8422852,14.1962891 13.6767578,13.9116211 L12.8442383,13.7075195 C12.2319336,13.5571289 11.9311523,13.2885742 11.9311523,12.9018555 C11.9311523,12.4238281 12.3984375,12.0854492 13.0698242,12.0854492 C13.6391602,12.0854492 13.9990234,12.2895508 14.2407227,12.7568359 C14.3427734,12.9501953 14.4716797,13.0092773 14.6542969,13.0092773 C14.8798828,13.0092773 15.0195312,12.8642578 15.0195312,12.644043 C15.0195312,12.6010742 15.0141602,12.5581055 15.003418,12.5043945 C14.8583984,11.8330078 14.0419922,11.3173828 13.1235352,11.3173828 C11.8613281,11.3173828 11.0073242,11.9780273 11.0073242,12.9501953 C11.0073242,13.734375 11.5283203,14.2446289 12.6079102,14.5131836 L13.4619141,14.7280273 C14.090332,14.8837891 14.3212891,15.0986328 14.3212891,15.5014648 C14.3212891,16.0224609 13.8378906,16.3339844 13.1235352,16.3339844 C12.4091797,16.3339844 12.0761719,16.1137695 11.796875,15.625 C11.6894531,15.4316406 11.5551758,15.3457031 11.3886719,15.3457031 C11.1469727,15.3457031 10.9643555,15.4853516 10.9643555,15.7324219 C10.9643555,15.8022461 10.9750977,15.8720703 11.0073242,15.9526367 C11.2758789,16.6508789 12.0546875,17.0966797 13.0483398,17.0966797 Z M18.5322266,17.0966797 C19.5473633,17.0966797 20.4335938,16.5380859 20.7021484,15.7646484 C20.7290039,15.6787109 20.7451172,15.5981445 20.7451172,15.5283203 C20.7451172,15.2866211 20.5839844,15.1201172 20.3422852,15.1201172 C20.1381836,15.1201172 20.0361328,15.1953125 19.9018555,15.4477539 C19.6118164,15.9848633 19.2036133,16.2749023 18.5322266,16.2749023 C17.5708008,16.2749023 16.9047852,15.4907227 16.9047852,14.2070312 C16.9047852,12.9555664 17.5600586,12.1391602 18.5322266,12.1391602 C19.1767578,12.1391602 19.6010742,12.4130859 19.8964844,12.9663086 C20.0253906,13.2080078 20.1381836,13.2939453 20.3422852,13.2939453 C20.5839844,13.2939453 20.7397461,13.1328125 20.7397461,12.8857422 C20.7397461,12.8266602 20.7290039,12.7568359 20.7075195,12.6870117 C20.4926758,11.9135742 19.5742188,11.3173828 18.5214844,11.3173828 C16.9746094,11.3173828 15.9541016,12.4614258 15.9541016,14.2177734 C15.9541016,15.9848633 16.9853516,17.0966797 18.5322266,17.0966797 Z" id="esc" fill="#007AFF" fill-rule="nonzero"></path>
    </g>
</svg>